<svg width="15" height="18" viewBox="0 0 15 18" fill="none" xmlns="http://www.w3.org/2000/svg">
<path d="M15 15L10 17.8868V12.1132L15 15ZM13.125 15.5H12.5V14.5H13.125V15.5ZM12.5 15.5C12.1699 15.5 11.8427 15.4872 11.5188 15.462L11.5963 14.465C11.8944 14.4882 12.1958 14.5 12.5 14.5V15.5ZM9.5811 15.1572C8.93836 15.0035 8.3149 14.8001 7.71502 14.5513L8.09807 13.6276C8.64964 13.8563 9.22285 14.0433 9.81379 14.1847L9.5811 15.1572ZM5.96764 13.6593C5.40829 13.3158 4.87811 12.9296 4.38163 12.5051L5.03144 11.745C5.48841 12.1357 5.97631 12.4911 6.49093 12.8072L5.96764 13.6593ZM2.99485 11.1184C2.57043 10.6219 2.18419 10.0917 1.8407 9.53236L2.69285 9.00907C3.00887 9.52368 3.3643 10.0116 3.75496 10.4686L2.99485 11.1184ZM0.948703 7.78498C0.699943 7.1851 0.496529 6.56164 0.342751 5.9189L1.3153 5.68621C1.45669 6.27715 1.6437 6.85036 1.87243 7.40193L0.948703 7.78498ZM0.0379658 3.98117C0.0128069 3.65732 0 3.33011 0 3H1C1 3.30423 1.0118 3.60561 1.03496 3.90371L0.0379658 3.98117ZM0 3V2.25H1V3H0ZM0 0.75V0H1V0.75H0Z" fill="#CDCDCD"/>
</svg>
