<svg width="16" height="16" viewBox="0 0 16 16" fill="none" xmlns="http://www.w3.org/2000/svg">
<g clip-path="url(#clip0_1573_780)">
<path d="M7.99988 -0.000244141C3.58189 -0.000244141 0 3.58142 0 7.99941C0 12.4174 3.58189 15.9998 7.99988 15.9998C12.4179 15.9998 15.9998 12.4179 15.9998 7.99941C15.9998 3.58096 12.4183 -0.000244141 7.99988 -0.000244141ZM7.99988 14.7265C4.29069 14.7265 1.27344 11.7088 1.27344 7.99941C1.27344 4.28999 4.29069 1.27296 7.99988 1.27296C11.7091 1.27296 14.7263 4.29068 14.7263 7.99918C14.7263 11.7077 11.7091 14.7263 7.99988 14.7263V14.7265Z" fill="#333333"/>
<path d="M8.54553 8.89461C8.54553 9.22924 8.54156 9.50051 7.98897 9.49975C7.43727 9.49975 7.43418 9.2283 7.43462 8.89349L7 3.10471C6.99978 2.76971 7.44917 2.49957 8 2.49976C8.55325 2.49994 9.00066 2.77215 9 3.10678L8.54553 8.89461Z" fill="#333333"/>
<path d="M8.91404 11.6518C8.91404 12.1541 8.50604 12.5621 8.00401 12.5621C7.50198 12.5621 7.09375 12.1541 7.09375 11.6518C7.09375 11.1495 7.50129 10.7429 8.00401 10.7429C8.50673 10.7429 8.91404 11.1502 8.91404 11.6518Z" fill="#333333"/>
</g>
<defs>
<clipPath id="clip0_1573_780">
<rect width="16" height="16" fill="white"/>
</clipPath>
</defs>
</svg>
