<svg width="16" height="18" viewBox="0 0 16 18" fill="none" xmlns="http://www.w3.org/2000/svg">
<path d="M0.5 15L5.5 17.8868V12.1132L0.5 15ZM2.375 15.5H3V14.5H2.375V15.5ZM3 15.5C3.33011 15.5 3.65732 15.4872 3.98117 15.462L3.90371 14.465C3.60561 14.4882 3.30423 14.5 3 14.5V15.5ZM5.9189 15.1572C6.56164 15.0035 7.1851 14.8001 7.78498 14.5513L7.40193 13.6276C6.85036 13.8563 6.27715 14.0433 5.68621 14.1847L5.9189 15.1572ZM9.53236 13.6593C10.0917 13.3158 10.6219 12.9296 11.1184 12.5051L10.4686 11.745C10.0116 12.1357 9.52369 12.4911 9.00907 12.8072L9.53236 13.6593ZM12.5051 11.1184C12.9296 10.6219 13.3158 10.0917 13.6593 9.53236L12.8072 9.00907C12.4911 9.52368 12.1357 10.0116 11.745 10.4686L12.5051 11.1184ZM14.5513 7.78498C14.8001 7.1851 15.0035 6.56164 15.1572 5.9189L14.1847 5.68621C14.0433 6.27715 13.8563 6.85036 13.6276 7.40193L14.5513 7.78498ZM15.462 3.98117C15.4872 3.65732 15.5 3.33011 15.5 3H14.5C14.5 3.30423 14.4882 3.60561 14.465 3.90371L15.462 3.98117ZM15.5 3V2.25H14.5V3H15.5ZM15.5 0.75V0H14.5V0.75H15.5Z" fill="#CDCDCD"/>
</svg>
